<svg width="440" height="485" viewBox="0 0 440 485" fill="none" xmlns="http://www.w3.org/2000/svg">
<path d="M180.773 380.756C70.7741 374.756 -8.22596 308.756 1.27395 138.756V99.7558C96.3577 96.7027 151.871 92.0097 201.274 150.756L202.274 145.756C225.774 31.2557 288.774 -7.24432 432.274 1.75577H436.774C449.774 272.756 400.774 353.756 238.274 380.756V432.256V484.256H201.274V317.756H238.274V343.256C367.274 326.756 407.274 235.756 400.774 79.7558L351.774 129.756L238.274 243.256V259.756H348.274C336.464 276.252 328.447 284.788 307.774 296.756H122.274V165.756C137.442 169.16 145.631 173.849 159.274 190.756V259.756H201.274C199.774 178.256 150.774 130.756 64.774 136.756H37.774C32.274 275.256 81.274 337.756 180.773 344.256V380.756Z" fill="white" stroke="black"/>
<path d="M238.774 190.256C233.774 86.7557 288.774 33.2557 389.274 38.7558L238.774 190.256Z" fill="black" stroke="black"/>
</svg>
