<svg width="2493" height="228" viewBox="0 0 2493 228" fill="none" xmlns="http://www.w3.org/2000/svg">
<path d="M1520.5 225.5V0.5H1548.5V206H1752.5V225.5H1520.5Z" fill="white" stroke="black"/>
<path d="M0.5 226V1H28.5V206.5H232.5V226H0.5Z" fill="white" stroke="black"/>
<path d="M2120.5 227H1877.5V0.5H2111.5V22H1905.5V100.5H2089V120.5H1905.5V207H2120.5V227Z" fill="white" stroke="black"/>
<path d="M600 227H357V0.5H591V22H385V100.5H568.5V120.5H385V207H600V227Z" fill="white" stroke="black"/>
<path d="M849.5 1.99995L703 226.5H735L771.5 168.5H960L998.5 226.5H1031.5L882.5 1.99995H849.5Z" fill="white" stroke="black"/>
<path d="M943.072 148.605H787.072C782.606 148.996 782.802 147.927 785.072 145.105L863.572 24.6053C865.092 21.8711 865.959 21.7263 867.572 24.6053L946.072 144.105C948.388 147.244 948.619 148.991 943.072 148.605Z" fill="black" stroke="black"/>
<path d="M1185 227H1157V1.5H1387V22.5H1185V111H1363.5V131H1185V227Z" fill="white" stroke="black"/>
<path d="M2370.5 227H2343V23H2218.5V1H2492.5V23H2370.5V227Z" fill="white" stroke="black"/>
</svg>
